<svg width="702" height="547" viewBox="0 0 702 547" fill="none" xmlns="http://www.w3.org/2000/svg">
<path opacity="0.1" d="M255.54 543.221C396.67 543.221 511.079 539.138 511.079 534.103C511.079 529.067 396.67 524.984 255.54 524.984C114.409 524.984 0 529.067 0 534.103C0 539.138 114.409 543.221 255.54 543.221Z" fill="#EA421A"/>
<path opacity="0.1" d="M188.36 16.554C204.639 2.02953 230.194 -0.930643 253.454 0.226356C326.514 3.86046 392.466 39.1742 449.513 79.1181C470.165 93.5783 490.498 109.162 503.903 129.075C531.192 169.612 523.098 225.768 485.151 259.163C472.241 270.525 456.59 279.235 440.523 286.956C411.954 300.684 381.13 311.705 348.705 314.842C325.583 317.079 302.176 315.261 279.189 312.139C214.965 303.419 151.924 284.137 99.0868 251.146C75.9127 236.676 54.0697 218.687 44.5177 195.279C34.9657 171.871 41.0789 142.208 64.7421 128.353C74.529 122.622 86.2303 120.034 97.6865 117.604C114.549 114.027 131.683 110.501 146.9 103.229C162.618 95.7174 181.229 81.1919 178.117 64.5666C174.778 46.7281 172.099 31.0615 188.36 16.554Z" fill="#EA421A"/>
<path opacity="0.1" d="M633.656 547C671.401 547 702 544.29 702 540.946C702 537.603 671.401 534.892 633.656 534.892C595.911 534.892 565.312 537.603 565.312 540.946C565.312 544.29 595.911 547 633.656 547Z" fill="#EA421A"/>
<path d="M356.445 206.01C355.333 203.854 349.451 190.453 349.451 190.453L339.594 164.883C339.594 164.883 332.599 154.1 332.599 152.098C332.599 150.095 319.881 142.086 319.881 142.086C319.881 142.086 309.548 139.005 308.753 138.697C307.958 138.389 295.717 134.334 295.717 134.334C295.717 134.334 290.897 127.988 290.21 129.646L290.21 129.65C290.185 129.608 290.159 129.572 290.134 129.529C289.149 127.686 288.525 125.672 288.296 123.595C288.27 123.411 288.248 123.216 288.224 123.023C291.399 120.869 294.001 117.972 295.806 114.583C297.61 111.195 298.562 107.417 298.579 103.577C298.576 102.566 298.508 101.556 298.375 100.554C298.463 100.499 298.554 100.451 298.649 100.41C298.846 100.324 298.796 100.254 298.651 100.181C298.701 100.155 298.75 100.127 298.801 100.106C299.064 99.9911 298.888 99.9044 298.633 99.8014L298.648 99.7937C299.007 99.6377 298.554 99.5343 298.189 99.3694C298.17 99.2628 298.151 99.1558 298.13 99.0497C298.211 98.8468 298.26 98.6328 298.276 98.415C298.309 98.4311 298.338 98.4484 298.372 98.4634C298.461 98.0664 298.459 97.6545 298.366 97.2585C298.343 97.339 298.315 97.418 298.283 97.4952C298.306 97.1361 298.232 96.7776 298.069 96.4569C297.906 96.1362 297.661 95.865 297.358 95.6717C297.339 95.6557 297.319 95.6386 297.301 95.6225L297.975 88.7121C307.916 88.2418 309.66 71.3086 307.393 70.3678C305.126 69.4271 307.393 67.3889 307.393 63.3123C307.393 59.2358 299.894 54.6889 299.894 54.6889C299.894 54.6889 296.754 56.2568 291.871 48.4174C286.987 40.578 269.023 39.3236 267.802 41.3619C266.582 43.4001 258.559 46.0656 248.094 49.0446C237.63 52.0235 239.548 64.4099 241.292 67.0753C242.729 69.2789 243.57 71.8179 243.734 74.4444C243.734 76.0123 247.048 82.5973 247.048 82.5973C246.003 84.8792 248.662 97.3797 249.45 100.932C249.438 101.042 249.425 101.151 249.414 101.26C249.407 101.271 249.398 101.28 249.392 101.291C249.354 101.348 249.32 101.408 249.29 101.47C249.121 101.838 249.065 102.248 249.129 102.648C249.072 103.085 249.133 103.53 249.306 103.936C249.366 107.283 250.139 110.579 251.575 113.602C253.01 116.626 255.074 119.307 257.629 121.467C257.641 121.681 257.653 121.896 257.665 122.116C257.811 125.018 257.894 128.45 257.741 131.734C257.733 131.902 257.721 132.067 257.712 132.234C257.135 132.351 256.593 132.602 256.131 132.967C255.669 133.332 255.299 133.8 255.051 134.334C254.066 136.232 248.343 139.159 248.343 139.159C248.343 139.159 238.327 139.621 237.373 141.469C236.419 143.318 221.953 149.479 221.953 149.479C221.953 149.479 214.322 153.946 215.435 159.029C216.016 161.686 214.384 165.812 212.693 169.148C209.155 167.805 205.471 166.886 201.718 166.409L209.823 174.171C209.653 174.437 209.553 174.587 209.553 174.587L204.942 190.915C204.942 190.915 203.353 196.614 201.763 198C200.173 199.387 203.194 212.017 203.194 212.017C203.194 212.017 201.445 220.951 200.014 223.262C198.583 225.573 202.24 231.272 202.24 231.272L209.553 247.908L228.948 252.837C228.948 252.837 230.24 253.11 232.329 253.558C232.263 253.956 232.196 254.352 232.127 254.747C231.192 260.046 229.965 264.919 228.471 266.238C224.814 269.472 224.973 283.952 224.973 283.952L225.132 304.438C225.132 304.438 226.404 329.7 225.768 330.624C225.367 331.208 226.172 332.159 228.297 333.014C228.237 333.394 228.177 333.78 228.121 334.173C227.523 338.363 227.256 343.144 228.63 345.258C229.226 346.401 229.552 347.665 229.583 348.954C229.583 350.957 232.604 355.116 232.604 355.116C232.604 355.116 230.219 372.214 234.194 378.067C238.168 383.92 241.507 394.549 239.599 397.013C239.599 397.013 236.26 404.253 237.85 407.488C239.44 410.722 237.85 412.571 235.784 413.341C233.717 414.111 233.895 420.427 233.895 420.427L237.691 450.463C237.691 450.463 239.758 456.625 238.009 458.781C236.26 460.938 236.26 471.72 238.963 475.417C241.666 479.114 235.148 485.891 235.148 485.891C235.148 485.891 231.173 491.591 237.532 493.439C237.532 493.439 238.804 493.747 236.419 496.212C234.035 498.676 233.558 501.757 235.148 502.835C235.477 503.033 235.822 503.205 236.179 503.348C236.12 503.713 236.056 504.091 235.981 504.493C235.37 507.709 234.219 511.899 232.127 513.926C228.072 518.085 224.573 522.753 221.717 527.814C219.536 531.954 218.582 535.83 220.999 537.647C226.722 541.96 234.035 543.347 238.327 541.652C242.619 539.958 248.66 534.721 248.66 534.721L250.091 528.713C250.091 528.713 249.137 525.016 253.907 523.63C258.676 522.244 263.127 517.315 263.127 517.315V509.33C264.282 508.669 265.397 507.941 266.466 507.148C266.466 507.148 268.691 499.293 266.466 496.674C264.24 494.055 263.445 493.131 266.307 491.437C269.168 489.742 269.556 486.046 267.458 482.811C265.353 479.576 262.014 474.801 264.876 468.024C267.737 461.246 268.787 440.451 268.787 440.451C268.787 440.451 267.451 426.28 268.787 423.045C270.122 419.811 267.261 413.341 267.261 413.341C267.261 413.341 268.214 405.331 269.963 401.634C271.712 397.938 273.143 378.375 273.143 378.375C273.143 378.375 276.322 370.057 276.322 364.666C276.322 359.275 271.394 346.336 278.707 342.947C278.707 342.947 281.886 345.72 280.614 356.81C280.614 356.81 284.271 369.749 284.271 373.754C284.271 377.759 286.973 392.238 286.973 392.238C286.973 392.238 287.291 396.859 288.404 398.554C289.517 400.248 288.404 404.869 288.404 404.869C288.404 404.869 292.538 408.72 291.425 411.185C290.312 413.649 291.615 419.207 291.615 419.207L290.63 453.698C290.63 453.698 287.768 468.486 294.445 477.42C294.445 477.42 292.061 490.513 290.63 491.437C289.199 492.361 295.876 500.371 295.876 500.371C295.876 500.371 294.025 505.56 297.784 505.814V514.388C299.089 516.696 300.878 518.694 303.03 520.241C306.527 522.706 305.097 531.178 305.097 531.178C305.097 531.178 309.548 541.96 321.312 539.65C333.076 537.339 334.666 536.261 334.03 532.41C333.801 531.005 333.292 528.498 332.561 525.651C331.296 520.704 329.356 514.733 327.035 511.788C323.379 507.148 320.358 497.444 320.358 497.444C320.358 497.444 318.927 494.21 320.358 493.131C321.789 492.053 321.153 490.051 321.153 490.051C321.153 490.051 322.546 486.046 321.293 483.581C320.04 481.117 323.697 476.033 323.697 476.033L322.584 452.312L323.697 417.808C323.697 417.808 318.768 412.109 320.835 408.72C322.902 405.331 318.45 400.556 318.45 400.556C318.45 400.556 317.974 400.402 319.245 396.551C320.006 394.282 319.893 391.81 318.927 389.62C318.927 389.62 316.225 380.07 320.994 372.83C320.994 372.83 323.061 363.28 323.697 358.351C324.135 354.925 326.883 342.128 328.517 334.642C328.609 334.219 328.698 333.814 328.782 333.427C331.137 333.555 332.917 333.705 332.917 333.705C332.917 333.705 329.261 308.289 332.917 303.052C336.574 297.815 330.056 257.766 330.056 257.766C330.056 257.766 328.498 250.767 327.538 243.626C327.483 243.219 327.433 242.812 327.382 242.406C330.334 242.169 333.296 242.103 336.256 242.208C343.886 242.671 351.358 239.744 351.517 236.817C351.676 233.89 355.81 222.338 356.445 219.719C357.081 217.101 357.558 208.167 356.445 206.01Z" fill="url(#paint0_linear_190_245)"/>
<path d="M263.684 503.161V517.424C263.684 517.424 259.394 522.331 254.799 523.712C250.203 525.092 251.123 528.773 251.123 528.773L249.744 534.754C249.744 534.754 243.923 539.968 239.787 541.655C235.651 543.342 228.605 541.962 223.09 537.668C220.762 535.858 221.681 532 223.782 527.877C226.521 522.857 229.892 518.21 233.813 514.05C235.829 512.032 236.938 507.86 237.526 504.658C237.961 502.259 238.102 500.401 238.102 500.401L263.684 503.161Z" fill="#4C495A"/>
<path opacity="0.1" d="M263.684 513.805V517.424C263.684 517.424 259.394 522.332 254.799 523.712C250.203 525.092 251.123 528.773 251.123 528.773L249.744 534.754C249.744 534.754 243.923 539.968 239.787 541.655C235.651 543.342 228.605 541.962 223.09 537.668C220.762 535.858 221.681 532 223.782 527.877C223.684 532.208 224.965 537.073 231.209 536.901C237.948 536.687 244.442 534.323 249.744 530.153C249.744 530.153 249.591 520.031 256.637 517.731C259.213 516.879 261.604 515.547 263.684 513.805Z" fill="black"/>
<path d="M319.748 539.662C308.413 541.962 304.124 531.227 304.124 531.227C304.124 531.227 305.502 522.792 302.132 520.338C300.048 518.782 298.324 516.794 297.077 514.51V500.401L310.864 490.585L318.327 497.198L318.829 497.64C318.829 497.64 321.74 507.302 325.263 511.921C327.5 514.854 329.368 520.798 330.588 525.724C331.292 528.558 331.783 531.055 332.003 532.453C332.616 536.288 331.084 537.361 319.748 539.662Z" fill="#4C495A"/>
<path opacity="0.1" d="M319.748 539.662C308.413 541.962 304.124 531.227 304.124 531.227C304.124 531.227 305.502 522.792 302.132 520.338C300.048 518.782 298.324 516.794 297.077 514.51V509.044C299.265 511.357 303.389 515.835 304.277 517.731C305.502 520.338 305.656 529.846 311.323 531.533C316.991 533.22 328.02 534.754 328.939 530.46C329.322 528.828 329.874 527.24 330.588 525.724C331.292 528.558 331.783 531.055 332.003 532.453C332.616 536.288 331.084 537.361 319.748 539.662Z" fill="black"/>
<path opacity="0.1" d="M238.102 500.401L263.684 503.161V510.7C260.798 512.412 256.662 514.228 254.339 512.363C250.908 509.615 240.706 506.124 237.526 504.658C237.961 502.259 238.102 500.401 238.102 500.401Z" fill="black"/>
<path opacity="0.1" d="M318.829 498.867C315.306 497.64 309.026 503.008 300.754 506.382C299.604 506.924 298.348 507.205 297.077 507.204V500.401L310.864 490.585L318.327 497.198C318.442 497.769 318.61 498.328 318.829 498.867Z" fill="black"/>
<path d="M327.867 330.014C327.867 330.014 327.383 332.271 326.691 335.547C325.116 343.001 322.469 355.742 322.046 359.153C321.434 364.061 319.442 373.569 319.442 373.569C314.847 380.777 317.451 390.286 317.451 390.286C318.382 392.474 318.491 394.925 317.757 397.187C316.532 401.021 316.991 401.174 316.991 401.174C316.991 401.174 321.28 405.929 319.289 409.303C317.298 412.677 322.046 418.351 322.046 418.351L320.974 452.705L322.046 476.323C322.046 476.323 318.523 481.384 319.73 483.837C320.937 486.291 319.595 490.279 319.595 490.279C319.595 490.279 320.208 492.272 318.829 493.346C317.451 494.419 318.829 497.64 318.829 497.64C315.306 496.413 309.026 501.781 300.754 505.155C292.482 508.529 295.239 500.554 295.239 500.554C295.239 500.554 288.806 492.579 290.184 491.659C291.563 490.739 293.861 477.703 293.861 477.703C287.427 468.808 290.184 454.085 290.184 454.085L291.134 419.744C291.134 419.744 289.878 414.21 290.95 411.757C292.022 409.303 288.04 405.469 288.04 405.469C288.04 405.469 289.112 400.868 288.04 399.181C286.967 397.494 286.661 392.893 286.661 392.893C286.661 392.893 284.057 378.477 284.057 374.489C284.057 370.502 280.534 357.619 280.534 357.619C281.759 346.577 278.695 343.817 278.695 343.817C271.649 347.191 276.398 360.073 276.398 365.441C276.398 370.809 273.334 379.09 273.334 379.09C273.334 379.09 271.955 398.567 270.27 402.248C268.585 405.929 267.666 413.904 267.666 413.904C267.666 413.904 270.424 420.345 269.137 423.566C267.85 426.786 269.137 440.896 269.137 440.896C269.137 440.896 268.126 461.6 265.369 468.348C262.611 475.096 265.828 479.85 267.856 483.071C269.878 486.291 269.504 489.972 266.747 491.659C263.99 493.346 264.756 494.266 266.9 496.873C269.045 499.48 266.9 507.302 266.9 507.302C266.9 507.302 258.169 514.203 254.339 511.136C250.51 508.069 238.255 504.081 236.723 503.008C235.191 501.934 235.651 498.867 237.949 496.413C240.246 493.959 239.021 493.653 239.021 493.653C232.894 491.812 236.723 486.138 236.723 486.138C236.723 486.138 243.004 479.39 240.4 475.709C237.796 472.028 237.796 461.293 239.481 459.146C241.166 456.999 239.174 450.864 239.174 450.864L235.516 420.958C235.516 420.958 235.345 414.67 237.336 413.904C239.327 413.137 240.859 411.296 239.327 408.076C237.796 404.855 241.012 397.647 241.012 397.647C242.851 395.193 239.634 384.611 235.804 378.783C231.975 372.956 234.272 355.932 234.272 355.932C234.272 355.932 231.362 351.791 231.362 349.798C231.333 348.518 231.019 347.26 230.443 346.117C229.119 344.013 229.377 339.253 229.953 335.081C230.51 331.044 231.362 327.56 231.362 327.56L327.867 330.014Z" fill="#5F5D7E"/>
<path d="M297.843 156.253L267.666 163.308C267.666 163.308 252.808 150.732 256.484 143.984C257.746 141.665 258.304 137.708 258.494 133.525C258.641 130.255 258.561 126.838 258.42 123.949C258.206 119.771 257.863 116.685 257.863 116.685C257.863 116.685 288.806 99.2019 287.733 116.685C287.515 119.597 287.583 122.523 287.936 125.421C288.154 127.483 288.755 129.486 289.706 131.328C291.361 134.279 293.401 134.322 293.401 134.322L297.843 156.253Z" fill="#FDC2CC"/>
<path opacity="0.1" d="M287.935 125.421C283.574 128.553 278.281 130.113 272.921 129.845C267.56 129.578 262.449 127.499 258.42 123.949C258.206 119.771 257.863 116.685 257.863 116.685C257.863 116.685 288.805 99.2019 287.733 116.685C287.515 119.597 287.583 122.523 287.935 125.421Z" fill="black"/>
<path d="M274.1 129.261C287.213 129.261 297.843 118.618 297.843 105.49C297.843 92.3613 287.213 81.7185 274.1 81.7185C260.987 81.7185 250.357 92.3613 250.357 105.49C250.357 118.618 260.987 129.261 274.1 129.261Z" fill="#FDC2CC"/>
<path opacity="0.1" d="M297.843 156.253L267.666 163.308C267.666 163.308 252.808 150.732 256.484 143.984C257.746 141.665 258.304 137.708 258.494 133.525C259.16 137.163 261.111 140.44 263.99 142.757C270.883 147.358 269.811 153.032 269.811 153.032L282.219 152.572C281.453 147.511 286.048 144.751 287.58 144.137C289.112 143.524 288.346 140.763 288.346 140.763L289.706 131.328C291.361 134.279 293.401 134.322 293.401 134.322L297.843 156.253Z" fill="black"/>
<path opacity="0.1" d="M327.867 330.014C327.867 330.014 327.383 332.271 326.691 335.547C323.357 335.369 318.952 335.241 316.991 335.688C313.621 336.455 300.141 336.762 300.141 336.762L266.747 337.946V336.915C262.906 336.946 259.07 337.202 255.258 337.682C249.59 338.449 240.706 337.375 235.038 336.455C233.294 336.205 231.586 335.743 229.952 335.081C230.51 331.044 231.362 327.56 231.362 327.56L327.867 330.014Z" fill="black"/>
<path d="M325.263 232.628C324.779 235.493 325.134 240.241 325.747 244.928C326.672 252.038 328.174 259.007 328.174 259.007C328.174 259.007 334.454 298.881 330.931 304.095C327.408 309.31 330.931 334.615 330.931 334.615C330.931 334.615 320.361 333.695 316.991 334.461C313.621 335.228 300.141 335.535 300.141 335.535L266.747 336.719V335.688C262.906 335.719 259.07 335.975 255.258 336.455C249.591 337.222 240.706 336.148 235.038 335.228C229.37 334.308 227.073 332.468 227.685 331.548C228.298 330.627 227.073 305.476 227.073 305.476L226.92 285.078C226.92 285.078 226.766 270.662 230.29 267.442C231.729 266.129 232.912 261.276 233.813 256.001C235.106 248.363 235.804 239.836 235.804 239.836L212.52 177.417L212.061 176.19C212.061 176.19 218.801 165.762 217.729 160.701C216.656 155.64 224.009 151.192 224.009 151.192C224.009 151.192 237.949 145.058 238.868 143.217C239.787 141.377 249.437 140.917 249.437 140.917C249.437 140.917 254.952 138.003 255.902 136.114C256.133 135.586 256.486 135.121 256.933 134.757C257.379 134.393 257.906 134.141 258.469 134.022C259.118 137.704 261.08 141.026 263.99 143.371C270.883 147.972 269.811 153.646 269.811 153.646L282.219 153.186C281.453 148.125 286.048 145.364 287.58 144.751C289.112 144.138 288.346 141.377 288.346 141.377L289.78 131.445C290.441 129.795 295.086 136.114 295.086 136.114C295.086 136.114 306.881 140.15 307.647 140.457C308.413 140.764 318.37 143.831 318.37 143.831C318.37 143.831 330.624 151.806 330.624 153.799C330.624 155.793 337.364 166.529 337.364 166.529C337.364 166.529 337.285 166.958 337.138 167.743C335.581 176.197 326.384 226.034 325.263 232.628Z" fill="#EA421A"/>
<path d="M276.244 207.783C276.244 207.783 249.744 200.729 247.14 199.042C244.536 197.355 229.217 207.17 247.906 220.512C247.906 220.512 270.758 225.267 276.871 220.512C282.985 215.758 276.244 207.783 276.244 207.783Z" fill="#FDC2CC"/>
<path opacity="0.1" d="M333.535 165.762L336.752 165.915L346.249 191.373C346.249 191.373 351.917 204.716 352.989 206.863C354.062 209.01 353.602 217.905 352.989 220.512C352.377 223.12 348.394 234.622 348.241 237.536C348.087 240.45 340.888 243.363 333.535 242.903C326.182 242.443 309.026 244.744 309.026 244.744C309.026 244.744 290.703 242.826 279.461 248.578C279.461 248.578 272.262 233.702 273.028 205.943C273.028 205.943 285.742 205.176 288.959 206.403C292.176 207.63 307.8 211.157 309.792 209.317C311.783 207.476 320.821 212.691 320.821 212.691C321.281 211.68 321.519 210.581 321.519 209.47C321.519 208.359 321.281 207.261 320.821 206.25C319.289 202.569 316.685 191.067 320.055 187.386C323.425 183.705 333.535 165.762 333.535 165.762Z" fill="black"/>
<path opacity="0.1" d="M325.747 244.928C318.143 245.443 309.638 246.584 309.638 246.584C309.638 246.584 291.318 244.664 280.074 250.418C280.074 250.418 272.874 235.542 273.64 207.783C273.64 207.783 286.354 207.016 289.571 208.243C292.788 209.47 308.413 212.998 310.404 211.157C312.396 209.317 321.433 214.531 321.433 214.531C321.893 213.52 322.131 212.422 322.131 211.311C322.131 210.199 321.893 209.101 321.433 208.09C319.902 204.409 317.297 192.907 320.667 189.226C324.038 185.546 334.148 167.602 334.148 167.602L337.138 167.743C335.581 176.197 326.384 226.033 325.263 232.628C324.779 235.493 325.134 240.241 325.747 244.928Z" fill="black"/>
<path d="M334.148 166.375L337.364 166.528L346.862 191.987C346.862 191.987 352.53 205.329 353.602 207.477C354.674 209.624 354.215 218.519 353.602 221.126C352.989 223.733 349.006 235.235 348.853 238.149C348.7 241.063 341.5 243.977 334.148 243.517C326.795 243.057 309.638 245.357 309.638 245.357C309.638 245.357 291.316 243.44 280.074 249.191C280.074 249.191 272.874 234.315 273.64 206.556C273.64 206.556 286.354 205.79 289.571 207.016C292.788 208.243 308.413 211.771 310.404 209.93C312.396 208.09 321.433 213.304 321.433 213.304C321.893 212.293 322.131 211.195 322.131 210.084C322.131 208.973 321.893 207.874 321.433 206.863C319.902 203.182 317.297 191.68 320.667 187.999C324.037 184.319 334.148 166.375 334.148 166.375Z" fill="#EA421A"/>
<path d="M301.784 222.707L305.607 225.077L326.907 190.636L323.085 188.267L301.784 222.707Z" fill="#DFE6F5"/>
<path d="M337.828 185.972C341.593 179.885 341.188 172.808 336.923 170.165C332.659 167.521 326.151 170.313 322.387 176.399C318.622 182.486 319.027 189.563 323.291 192.207C327.556 194.85 334.064 192.059 337.828 185.972Z" fill="#DFE6F5"/>
<path opacity="0.1" d="M335.649 184.621C338.351 180.252 338.061 175.172 335 173.275C331.939 171.377 327.267 173.381 324.565 177.75C321.863 182.119 322.154 187.199 325.215 189.097C328.276 190.994 332.947 188.99 335.649 184.621Z" fill="black"/>
<path d="M290.897 240.31L294.72 242.68L307.973 221.25L304.151 218.881L290.897 240.31Z" fill="#53526B"/>
<path d="M268.432 241.83L277.776 239.223C277.776 239.223 323.885 240.45 308.413 221.433C308.413 221.433 300.294 213.611 283.291 219.899C266.288 226.187 261.539 226.954 261.539 226.954L268.432 241.83Z" fill="#FDC2CC"/>
<path opacity="0.1" d="M261.539 161.621C262.554 161.621 263.377 160.797 263.377 159.78C263.377 158.764 262.554 157.94 261.539 157.94C260.524 157.94 259.701 158.764 259.701 159.78C259.701 160.797 260.524 161.621 261.539 161.621Z" fill="black"/>
<path opacity="0.1" d="M293.095 160.547C294.11 160.547 294.933 159.723 294.933 158.707C294.933 157.691 294.11 156.867 293.095 156.867C292.079 156.867 291.256 157.691 291.256 158.707C291.256 159.723 292.079 160.547 293.095 160.547Z" fill="black"/>
<path d="M261.539 161.007C262.554 161.007 263.377 160.183 263.377 159.167C263.377 158.151 262.554 157.327 261.539 157.327C260.524 157.327 259.701 158.151 259.701 159.167C259.701 160.183 260.524 161.007 261.539 161.007Z" fill="#F7F7F7"/>
<path opacity="0.1" d="M264.143 187.079C265.158 187.079 265.981 186.255 265.981 185.239C265.981 184.222 265.158 183.398 264.143 183.398C263.128 183.398 262.305 184.222 262.305 185.239C262.305 186.255 263.128 187.079 264.143 187.079Z" fill="black"/>
<path opacity="0.1" d="M294.014 185.239C295.029 185.239 295.852 184.415 295.852 183.398C295.852 182.382 295.029 181.558 294.014 181.558C292.999 181.558 292.176 182.382 292.176 183.398C292.176 184.415 292.999 185.239 294.014 185.239Z" fill="black"/>
<path d="M264.143 186.466C265.158 186.466 265.981 185.642 265.981 184.625C265.981 183.609 265.158 182.785 264.143 182.785C263.128 182.785 262.305 183.609 262.305 184.625C262.305 185.642 263.128 186.466 264.143 186.466Z" fill="#F7F7F7"/>
<path opacity="0.1" d="M293.248 274.047C294.263 274.047 295.086 273.223 295.086 272.206C295.086 271.19 294.263 270.366 293.248 270.366C292.233 270.366 291.41 271.19 291.41 272.206C291.41 273.223 292.233 274.047 293.248 274.047Z" fill="black"/>
<path opacity="0.1" d="M269.055 274.047C270.071 274.047 270.894 273.223 270.894 272.206C270.894 271.19 270.071 270.366 269.055 270.366C268.04 270.366 267.217 271.19 267.217 272.206C267.217 273.223 268.04 274.047 269.055 274.047Z" fill="black"/>
<path d="M293.248 273.433C294.263 273.433 295.086 272.609 295.086 271.593C295.086 270.576 294.263 269.753 293.248 269.753C292.233 269.753 291.41 270.576 291.41 271.593C291.41 272.609 292.233 273.433 293.248 273.433Z" fill="#F7F7F7"/>
<path opacity="0.1" d="M270.894 304.862C271.909 304.862 272.732 304.038 272.732 303.022C272.732 302.005 271.909 301.181 270.894 301.181C269.879 301.181 269.056 302.005 269.056 303.022C269.056 304.038 269.879 304.862 270.894 304.862Z" fill="black"/>
<path opacity="0.1" d="M294.014 303.022C295.029 303.022 295.852 302.198 295.852 301.182C295.852 300.165 295.029 299.341 294.014 299.341C292.999 299.341 292.176 300.165 292.176 301.182C292.176 302.198 292.999 303.022 294.014 303.022Z" fill="black"/>
<path d="M270.894 304.249C271.909 304.249 272.732 303.425 272.732 302.408C272.732 301.392 271.909 300.568 270.894 300.568C269.879 300.568 269.056 301.392 269.056 302.408C269.056 303.425 269.879 304.249 270.894 304.249Z" fill="#F7F7F7"/>
<path d="M269.055 273.433C270.071 273.433 270.894 272.609 270.894 271.593C270.894 270.576 270.071 269.753 269.055 269.753C268.04 269.753 267.217 270.576 267.217 271.593C267.217 272.609 268.04 273.433 269.055 273.433Z" fill="#F7F7F7"/>
<path d="M294.014 302.408C295.029 302.408 295.852 301.585 295.852 300.568C295.852 299.552 295.029 298.728 294.014 298.728C292.999 298.728 292.176 299.552 292.176 300.568C292.176 301.585 292.999 302.408 294.014 302.408Z" fill="#F7F7F7"/>
<path d="M293.095 159.934C294.11 159.934 294.933 159.11 294.933 158.094C294.933 157.077 294.11 156.253 293.095 156.253C292.079 156.253 291.256 157.077 291.256 158.094C291.256 159.11 292.079 159.934 293.095 159.934Z" fill="#F7F7F7"/>
<path d="M294.014 184.625C295.029 184.625 295.852 183.801 295.852 182.785C295.852 181.769 295.029 180.945 294.014 180.945C292.999 180.945 292.176 181.769 292.176 182.785C292.176 183.801 292.999 184.625 294.014 184.625Z" fill="#F7F7F7"/>
<path opacity="0.1" d="M296.771 247.351C296.771 247.351 297.077 289.373 297.996 296.887C297.996 296.887 298.33 249.332 296.771 247.351Z" fill="black"/>
<path opacity="0.1" d="M304.583 266.828C303.952 266.828 317.145 316.058 317.757 319.585C318.37 323.112 308.26 266.828 304.583 266.828Z" fill="black"/>
<path opacity="0.1" d="M315 258.853C315 259.313 322.353 285.539 326.029 286.919C329.706 288.299 315 258.853 315 258.853Z" fill="black"/>
<path opacity="0.1" d="M343.951 207.783C343.951 207.783 328.327 208.48 327.867 210.739C327.408 212.998 343.951 207.783 343.951 207.783Z" fill="black"/>
<path opacity="0.1" d="M316.378 407.769C316.378 407.769 305.196 412.523 306.881 412.83C308.566 413.137 316.378 407.769 316.378 407.769Z" fill="black"/>
<path opacity="0.1" d="M293.248 400.714C292.812 399.733 300.754 404.702 300.754 405.315C300.754 405.929 293.86 402.095 293.248 400.714Z" fill="black"/>
<path opacity="0.1" d="M303.664 416.817C303.664 416.817 312.396 416.376 313.008 419.741C313.621 423.105 303.664 416.817 303.664 416.817Z" fill="black"/>
<path opacity="0.1" d="M240.859 416.798C240.859 416.798 250.356 414.939 251.122 416.798C251.888 418.658 240.859 416.798 240.859 416.798Z" fill="black"/>
<path opacity="0.1" d="M244.382 474.635C244.382 474.635 245.005 482.457 242.702 484.297C240.4 486.138 244.382 474.635 244.382 474.635Z" fill="black"/>
<path opacity="0.1" d="M243.223 491.199C246.221 491.505 261.999 488.745 261.845 491.199C261.692 493.653 243.223 491.199 243.223 491.199Z" fill="black"/>
<path opacity="0.1" d="M315.612 481.69C315.612 481.69 310.231 480.862 311.543 484.497L315.612 481.69Z" fill="black"/>
<path opacity="0.1" d="M215.584 175.577H212.674L208.231 191.833C208.231 191.833 206.7 197.508 205.168 198.888C203.636 200.268 206.546 212.844 206.546 212.844C206.546 212.844 204.861 221.739 203.483 224.04C202.104 226.34 205.627 232.015 205.627 232.015L212.674 248.578L231.362 253.485C231.362 253.485 264.296 260.694 265.828 261.767C267.36 262.841 268.739 261.307 269.811 251.338C270.883 241.37 273.794 222.046 276.091 221.126C276.091 221.126 257.71 223.12 256.178 222.813C254.646 222.506 247.293 222.966 247.293 222.966C247.293 222.966 237.643 222.353 236.111 223.273C234.579 224.193 238.102 218.818 238.102 218.818C238.747 216.358 238.747 213.772 238.102 211.311C237.03 207.17 236.417 160.241 215.584 175.577Z" fill="black"/>
<path opacity="0.1" d="M275.479 222.966C273.181 223.886 270.27 243.21 269.198 253.179C268.126 263.147 266.747 264.681 265.215 263.607C263.971 262.736 242.017 257.816 233.813 256.001C235.106 248.363 235.804 239.836 235.804 239.836L212.52 177.417H214.971C235.804 162.081 236.417 209.01 237.489 213.151C238.134 215.612 238.134 218.198 237.489 220.66C237.489 220.66 233.966 226.033 235.498 225.113C237.03 224.193 246.68 224.807 246.68 224.807C246.68 224.807 254.033 224.346 255.565 224.653C257.097 224.96 275.479 222.966 275.479 222.966Z" fill="black"/>
<path d="M214.971 176.19H212.061L207.618 192.447C207.618 192.447 206.087 198.121 204.555 199.502C203.023 200.882 205.933 213.458 205.933 213.458C205.933 213.458 204.248 222.353 202.87 224.653C201.491 226.954 205.014 232.628 205.014 232.628L212.061 249.191L230.749 254.099C230.749 254.099 263.683 261.307 265.215 262.381C266.747 263.454 268.126 261.921 269.198 251.952C270.27 241.983 273.181 222.66 275.478 221.739C275.478 221.739 257.097 223.733 255.565 223.426C254.033 223.12 246.68 223.58 246.68 223.58C246.68 223.58 237.03 222.966 235.498 223.886C233.966 224.807 237.489 219.432 237.489 219.432C238.134 216.971 238.134 214.385 237.489 211.924C236.417 207.783 235.804 160.854 214.971 176.19Z" fill="#EA421A"/>
<path opacity="0.1" d="M224.928 231.708C224.928 231.708 216.503 247.658 214.971 245.817C213.439 243.977 224.928 231.708 224.928 231.708Z" fill="black"/>
<path opacity="0.1" d="M216.197 222.625C216.197 222.625 208.384 229.101 212.061 230.788C215.737 232.475 216.197 222.625 216.197 222.625Z" fill="black"/>
<path opacity="0.1" d="M223.55 214.685C224.162 214.838 234.885 216.97 235.038 217.898C235.191 218.825 223.55 214.685 223.55 214.685Z" fill="black"/>
<path opacity="0.1" d="M297.911 102.337C297.578 102.454 297.293 102.68 297.104 102.978C296.914 103.276 296.829 103.629 296.863 103.981C296.238 104.533 295.362 103.883 294.853 103.177C294.339 102.478 293.756 101.613 292.978 101.711C292.609 101.829 292.25 101.979 291.906 102.159C290.681 102.551 289.645 101.11 288.959 99.8461C287.764 97.6315 286.569 95.419 285.374 93.2085C282.978 94.601 280.148 93.141 277.77 91.6994C275.393 90.2577 272.562 88.7916 270.16 90.1842C266.637 92.2208 266.508 99.0118 262.856 100.686C261.68 101.226 260.313 101.11 259.223 101.852C258.144 102.588 257.562 104.005 257.078 105.361C256.899 106.133 256.478 106.827 255.877 107.342C255.495 107.542 255.07 107.646 254.64 107.643C253.557 107.827 252.444 107.671 251.453 107.195C250.934 106.869 250.542 106.374 250.342 105.794C250.141 105.214 250.144 104.583 250.35 104.005C250.379 103.944 250.412 103.885 250.448 103.827C250.841 103.352 251.193 102.845 251.502 102.312C251.87 101.337 251.343 100.202 251.46 99.1467C251.649 97.3431 253.555 96.3923 253.88 94.6194C254.015 93.9262 253.874 93.184 254.002 92.4846C254.02 92.393 254.045 92.3028 254.076 92.2147L252.955 92.9876C254.211 91.5215 254.842 89.4848 255.761 87.7058C256.782 85.758 258.187 84.0377 259.891 82.649C261.595 81.2603 263.563 80.2321 265.675 79.6266C269.67 78.4611 273.892 78.78 277.923 79.7677C281.757 80.724 285.43 82.239 288.824 84.2643C290.036 84.9153 291.114 85.7918 291.998 86.8469C292.739 87.9409 293.369 89.1061 293.879 90.3252C295.068 92.7913 298.315 95.0733 295.729 95.4169C293.579 95.7052 295.539 97.2143 296.667 98.2326C296.921 98.4323 297.141 98.6727 297.316 98.9442C297.504 99.3322 297.589 99.7614 297.566 100.192C297.542 100.622 297.41 101.039 297.182 101.404C296.747 101.956 298.511 102.067 297.911 102.337Z" fill="black"/>
<path d="M297.911 101.723C297.578 101.841 297.293 102.066 297.104 102.364C296.914 102.662 296.829 103.015 296.863 103.367C296.238 103.919 295.362 103.269 294.853 102.564C294.339 101.864 293.757 100.999 292.978 101.097C292.609 101.215 292.25 101.365 291.906 101.545C290.681 101.938 289.645 100.496 288.959 99.2326C287.764 97.018 286.569 94.8055 285.374 92.595C282.978 93.9875 280.148 92.5275 277.77 91.0859C275.393 89.6442 272.562 88.1781 270.16 89.5707C266.637 91.6073 266.508 98.3983 262.856 100.073C261.68 100.613 260.314 100.496 259.223 101.239C258.144 101.975 257.562 103.392 257.078 104.747C256.899 105.519 256.478 106.214 255.877 106.729C255.495 106.929 255.07 107.032 254.64 107.03C253.557 107.214 252.444 107.057 251.453 106.582C250.934 106.255 250.542 105.761 250.342 105.181C250.141 104.601 250.144 103.97 250.35 103.392C250.38 103.331 250.412 103.271 250.449 103.214C250.841 102.739 251.193 102.232 251.502 101.699C251.87 100.723 251.343 99.5884 251.46 98.5332C251.649 96.7297 253.555 95.7788 253.88 94.0059C254.015 93.3127 253.874 92.5705 254.002 91.8711C254.02 91.7795 254.045 91.6893 254.076 91.6012L252.955 92.3741C254.211 90.908 254.842 88.8713 255.761 87.0923C256.782 85.1445 258.187 83.4242 259.891 82.0355C261.595 80.6468 263.563 79.6186 265.675 79.0131C269.67 77.8475 273.892 78.1665 277.923 79.1542C281.757 80.1105 285.43 81.6255 288.824 83.6508C290.036 84.3018 291.114 85.1783 291.998 86.2335C292.739 87.3274 293.369 88.4926 293.879 89.7117C295.068 92.1778 298.315 94.4599 295.729 94.8034C293.579 95.0917 295.54 96.6008 296.667 97.6192C296.921 97.8188 297.141 98.0593 297.316 98.3307C297.504 98.7187 297.589 99.1479 297.566 99.5781C297.542 100.008 297.41 100.426 297.182 100.791C296.747 101.343 298.511 101.453 297.911 101.723Z" fill="#865A61"/>
<path opacity="0.1" d="M296.667 97.6192L296.422 100.202C296.422 100.202 270.712 67.5784 250.712 104.416C250.712 104.416 250.614 103.968 250.448 103.214C250.841 102.739 251.193 102.232 251.502 101.699C251.87 100.723 251.343 99.5884 251.46 98.5332C251.649 96.7297 253.555 95.7788 253.88 94.0059C254.015 93.3127 253.874 92.5705 254.002 91.8711C254.02 91.7795 254.045 91.6893 254.076 91.6012L252.955 92.3741C254.211 90.908 254.842 88.8713 255.761 87.0923C256.782 85.1445 258.187 83.4242 259.891 82.0355C261.595 80.6468 263.563 79.6186 265.675 79.0131C269.67 77.8475 273.892 78.1665 277.923 79.1542C281.757 80.1105 285.43 81.6255 288.824 83.6508C290.036 84.3018 291.114 85.1783 291.998 86.2335C292.739 87.3274 293.369 88.4926 293.879 89.7117C295.068 92.1778 298.315 94.4599 295.729 94.8034C293.579 95.0917 295.539 96.6009 296.667 97.6192Z" fill="black"/>
<g opacity="0.1">
<path opacity="0.1" d="M297.301 101.389C297.174 101.532 297.082 101.702 297.031 101.886C296.981 102.07 296.973 102.263 297.009 102.451C296.384 103.003 295.508 102.353 295 101.647C294.485 100.948 293.903 100.083 293.125 100.181C292.755 100.299 292.396 100.449 292.052 100.629C290.827 101.022 289.791 99.5799 289.105 98.3162C287.91 96.1016 286.715 93.8891 285.521 91.6786C283.125 93.0712 280.294 91.6111 277.917 90.1695C275.539 88.7279 272.708 87.2617 270.306 88.6543C266.783 90.691 266.654 97.4819 263.003 99.1566C261.826 99.6965 260.46 99.5799 259.369 100.322C258.291 101.058 257.709 102.475 257.225 103.831C257.045 104.603 256.625 105.297 256.024 105.813C255.642 106.012 255.217 106.116 254.786 106.113C253.703 106.297 252.59 106.141 251.6 105.665C251.006 105.271 250.581 104.67 250.406 103.979C250.284 104.529 250.333 105.102 250.547 105.623C250.76 106.144 251.127 106.587 251.6 106.892C252.59 107.368 253.703 107.524 254.786 107.34C255.217 107.343 255.642 107.239 256.024 107.039C256.625 106.524 257.045 105.83 257.225 105.058C257.709 103.702 258.291 102.285 259.369 101.549C260.46 100.807 261.826 100.923 263.003 100.384C266.654 98.7088 266.783 91.9179 270.306 89.8812C272.708 88.4886 275.539 89.9548 277.917 91.3964C280.294 92.838 283.125 94.2981 285.521 92.9055C286.715 95.114 287.91 97.3265 289.105 99.5431C289.791 100.807 290.827 102.248 292.052 101.856C292.396 101.676 292.755 101.526 293.125 101.408C293.903 101.31 294.485 102.175 295 102.874C295.508 103.58 296.384 104.23 297.009 103.678C296.975 103.326 297.06 102.973 297.25 102.675C297.44 102.377 297.724 102.151 298.057 102.034C298.535 101.819 297.519 101.704 297.301 101.389Z" fill="black"/>
<path opacity="0.1" d="M295.297 95.2602C295.482 95.1856 295.677 95.1364 295.876 95.114C297.016 94.9625 297.02 94.4336 296.569 93.6788C296.354 93.7947 296.119 93.8656 295.876 93.887C294.645 94.052 294.762 94.6167 295.297 95.2602Z" fill="black"/>
<path opacity="0.1" d="M297.644 100.399C297.73 100.003 297.728 99.5937 297.638 99.1991C297.584 99.4437 297.478 99.6738 297.328 99.8744C297.136 100.118 297.372 100.275 297.644 100.399Z" fill="black"/>
<path opacity="0.1" d="M251.641 98.6316C251.628 98.7017 251.613 98.771 251.606 98.8438C251.581 99.3963 251.621 99.9498 251.725 100.493C251.798 99.8719 251.769 99.2434 251.641 98.6316Z" fill="black"/>
<path opacity="0.1" d="M254.129 91.1471C253.84 91.694 253.496 92.2093 253.101 92.6847L254.09 92.003C254.085 91.7172 254.098 91.4313 254.129 91.1471Z" fill="black"/>
</g>
<path d="M250.711 103.803C250.711 103.803 247.014 87.2556 248.19 84.6018C248.19 84.6018 244.997 78.0454 244.997 76.4843C244.842 73.8794 244.033 71.3558 242.644 69.1474C240.964 66.4936 239.115 54.1613 249.198 51.1953C259.282 48.2293 267.012 45.5755 268.188 43.5461C269.365 41.5167 286.674 42.7656 291.38 50.5708C296.085 58.3761 299.11 56.8151 299.11 56.8151C299.11 56.8151 306.337 61.3421 306.337 65.4009C306.337 69.4596 304.152 71.489 306.337 72.4256C308.521 73.3622 306.841 90.2216 297.262 90.6899L296.422 99.5879C296.422 99.5879 270.709 66.9619 250.711 103.803Z" fill="#EA421A"/>
<path opacity="0.1" d="M251.812 54.4199C251.812 54.4199 249.591 67.4558 253.65 71.8267L251.812 54.4199Z" fill="black"/>
<path opacity="0.1" d="M262.228 51.4292C262.228 51.4292 256.56 65.3853 257.939 68.0691L262.228 51.4292Z" fill="black"/>
<path opacity="0.1" d="M267.13 46.9817C267.13 46.9817 263.301 65.1552 265.139 66.6122L267.13 46.9817Z" fill="black"/>
<path opacity="0.1" d="M273.717 51.8894C273.717 51.8894 268.968 63.545 270.883 65.1553L273.717 51.8894Z" fill="black"/>
<path opacity="0.1" d="M282.678 53.2695C282.678 53.2695 277.087 62.7781 278.236 64.4651L282.678 53.2695Z" fill="black"/>
<path opacity="0.1" d="M294.167 62.5481C294.167 62.5481 288.193 64.1584 289.418 66.0755L294.167 62.5481Z" fill="black"/>
<path opacity="0.1" d="M299.835 72.4401C299.835 72.4401 294.473 75.0472 295.469 76.4275L299.835 72.4401Z" fill="black"/>
<path opacity="0.1" d="M248.19 84.6019C248.19 84.6019 282.434 70.6758 297.262 90.69C297.262 90.69 279.264 75.3696 248.19 84.6019Z" fill="black"/>
<path d="M235.815 199.028L240.587 194.196L254.077 207.547L249.306 212.38L236.899 200.101L235.815 199.028Z" fill="#53526B"/>
<path d="M204.512 168.048C204.512 168.048 225.396 169.827 244.833 191.731L236.732 199.936L204.512 168.048Z" fill="#DFE6F5"/>
<path d="M267.153 207.213C267.153 207.213 247.08 199.887 245.107 198.135C243.135 196.383 231.532 206.576 245.688 220.431C245.688 220.431 262.997 225.368 267.627 220.431C272.258 215.494 267.153 207.213 267.153 207.213Z" fill="#FDC2CC"/>
<path d="M638.711 347.232H634.629V439.173H638.711V347.232Z" fill="#535461"/>
<path d="M664.346 438.894L664.087 443.035L663.727 448.878L663.577 451.316L663.216 457.166L663.06 459.604L662.699 465.448L658.584 531.925C658.407 534.785 657.147 537.47 655.062 539.432C652.977 541.395 650.222 542.488 647.36 542.488H625.98C623.118 542.488 620.365 541.395 618.28 539.432C616.196 537.469 614.938 534.784 614.762 531.925L610.64 465.448L610.28 459.604L610.13 457.166L609.763 451.316L609.613 448.878L609.252 443.035L608.994 438.894C608.945 438.099 609.059 437.303 609.329 436.554C609.6 435.805 610.02 435.119 610.565 434.539C611.11 433.96 611.768 433.497 612.498 433.182C613.228 432.866 614.015 432.703 614.81 432.703H658.536C659.331 432.703 660.118 432.866 660.847 433.182C661.577 433.498 662.234 433.96 662.778 434.54C663.323 435.12 663.743 435.806 664.012 436.555C664.282 437.303 664.395 438.099 664.346 438.894Z" fill="#65617D"/>
<path d="M664.087 443.035L663.726 448.878H609.613L609.252 443.035H664.087Z" fill="#9D9CB5"/>
<path d="M663.576 451.316L663.216 457.167H610.13L609.762 451.316H663.576Z" fill="#9D9CB5"/>
<path d="M663.06 459.604L662.7 465.448H610.641L610.28 459.604H663.06Z" fill="#9D9CB5"/>
<path d="M603.023 381.693C626.779 398.898 636.67 425.809 636.67 425.809C636.67 425.809 608.045 424.827 584.289 407.622C560.533 390.418 550.642 363.506 550.642 363.506C550.642 363.506 579.267 364.489 603.023 381.693Z" fill="#EA421A"/>
<path d="M550.642 363.506C550.642 363.506 580.353 380.018 589.885 393.688C599.416 407.357 636.67 425.809 636.67 425.809" stroke="#535461" stroke-width="2" stroke-miterlimit="10"/>
<path d="M618.356 347.029C631.286 356.393 636.67 371.041 636.67 371.041C636.67 371.041 621.089 370.506 608.159 361.141C595.229 351.777 589.845 337.129 589.845 337.129C589.845 337.129 605.426 337.664 618.356 347.029Z" fill="#EA421A"/>
<path d="M589.845 337.129C589.845 337.129 606.017 346.117 611.205 353.557C616.393 360.997 636.67 371.041 636.67 371.041" stroke="#535461" stroke-width="2" stroke-miterlimit="10"/>
<path d="M655.459 370.295C640.608 386.638 637.466 407.991 637.466 407.991C637.466 407.991 658.404 402.848 673.255 386.505C688.107 370.162 691.248 348.809 691.248 348.809C691.248 348.809 670.311 353.952 655.459 370.295Z" fill="#EA421A"/>
<path d="M691.248 348.809C691.248 348.809 671.903 365.561 666.986 377.103C662.07 388.645 637.466 407.991 637.466 407.991" stroke="#535461" stroke-width="2" stroke-miterlimit="10"/>
<defs>
<linearGradient id="paint0_linear_190_245" x1="278.398" y1="542.354" x2="278.398" y2="40.4957" gradientUnits="userSpaceOnUse">
<stop stop-color="#808080" stop-opacity="0.25"/>
<stop offset="0.53514" stop-color="#808080" stop-opacity="0.12"/>
<stop offset="1" stop-color="#808080" stop-opacity="0.1"/>
</linearGradient>
</defs>
</svg>
