<svg width="378" height="54" viewBox="0 0 378 54" fill="none" xmlns="http://www.w3.org/2000/svg">
<path d="M179 46.0031C179 48.7743 176.709 51.0189 173.874 51.0189H6.13243C3.2995 51.0189 1 48.7743 1 46.0031V6.00357C1 3.23374 3.2995 0.981201 6.13243 0.981201H173.873C176.709 0.981201 178.999 3.23374 178.999 6.00357L179 46.0031Z" fill="black"/>
<path d="M173.333 1.04162C176.42 1.04162 178.932 3.4905 178.932 6.5V45.5C178.932 48.5095 176.42 50.9584 173.333 50.9584H6.66667C3.58 50.9584 1.06833 48.5095 1.06833 45.5V6.5C1.06833 3.4905 3.58 1.04162 6.66667 1.04162H173.333ZM173.333 2.74817e-06H6.66667C3.00167 2.74817e-06 0 2.92663 0 6.5V45.5C0 49.0734 3.00167 52 6.66667 52H173.333C176.998 52 180 49.0734 180 45.5V6.5C180 2.92663 176.998 2.74817e-06 173.333 2.74817e-06Z" fill="#A6A6A6"/>
<path d="M40.1707 25.7191C40.132 21.5292 43.6894 19.4908 43.852 19.3959C41.8374 16.532 38.7147 16.1407 37.6174 16.1095C34.9947 15.8404 32.4507 17.6396 31.1147 17.6396C29.752 17.6396 27.6947 16.1355 25.4774 16.1797C22.624 16.2226 19.9547 17.8333 18.4907 20.3345C15.4694 25.4344 17.7227 32.9289 20.6174 37.0512C22.0654 39.0701 23.7574 41.3243 25.972 41.245C28.1387 41.1579 28.948 39.8982 31.5627 39.8982C34.1534 39.8982 34.9134 41.245 37.172 41.1943C39.4974 41.1579 40.9614 39.1663 42.3587 37.1292C44.032 34.8152 44.704 32.5363 44.7307 32.4193C44.676 32.4011 40.2147 30.741 40.1707 25.7191Z" fill="white"/>
<path d="M35.904 13.3977C37.0694 11.9768 37.8667 10.0437 37.6454 8.08203C35.9587 8.15483 33.8494 9.21953 32.6347 10.6092C31.56 11.8338 30.6 13.841 30.848 15.7286C32.7427 15.8664 34.688 14.7965 35.904 13.3977Z" fill="white"/>
<path d="M71.5266 40.9552H68.4986L66.84 35.8735H61.0746L59.4946 40.9552H56.5466L62.2586 23.6548H65.7866L71.5266 40.9552ZM66.34 33.7415L64.84 29.224C64.6813 28.7625 64.384 27.6757 63.9453 25.9649H63.892C63.7173 26.7007 63.436 27.7875 63.0493 29.224L61.576 33.7415H66.34Z" fill="white"/>
<path d="M86.2159 34.5645C86.2159 36.6861 85.6279 38.3631 84.4519 39.5942C83.3985 40.6901 82.0905 41.2374 80.5292 41.2374C78.8439 41.2374 77.6332 40.6472 76.8959 39.4668H76.8425V46.0383H73.9999V32.5872C73.9999 31.2534 73.9639 29.8845 73.8945 28.4805H76.3945L76.5532 30.4578H76.6065C77.5545 28.968 78.9932 28.2244 80.9239 28.2244C82.4332 28.2244 83.6932 28.8055 84.7012 29.969C85.7119 31.1338 86.2159 32.6652 86.2159 34.5645ZM83.3199 34.6659C83.3199 33.4517 83.0399 32.4507 82.4772 31.6629C81.8625 30.8413 81.0372 30.4305 80.0025 30.4305C79.3012 30.4305 78.6639 30.6593 78.0945 31.1104C77.5239 31.5654 77.1505 32.1595 76.9759 32.8953C76.8879 33.2385 76.8439 33.5193 76.8439 33.7403V35.8203C76.8439 36.7277 77.1292 37.4934 77.6999 38.1187C78.2705 38.744 79.0119 39.056 79.9239 39.056C80.9945 39.056 81.8279 38.653 82.4239 37.8496C83.0212 37.0449 83.3199 35.9841 83.3199 34.6659Z" fill="white"/>
<path d="M100.932 34.5645C100.932 36.6861 100.344 38.3631 99.1667 39.5942C98.1147 40.6901 96.8067 41.2374 95.2454 41.2374C93.5601 41.2374 92.3494 40.6472 91.6134 39.4668H91.5601V46.0383H88.7174V32.5872C88.7174 31.2534 88.6814 29.8845 88.6121 28.4805H91.1121L91.2707 30.4578H91.3241C92.2707 28.968 93.7094 28.2244 95.6414 28.2244C97.1494 28.2244 98.4094 28.8055 99.4201 29.969C100.427 31.1338 100.932 32.6652 100.932 34.5645ZM98.0361 34.6659C98.0361 33.4517 97.7547 32.4507 97.1921 31.6629C96.5774 30.8413 95.7547 30.4305 94.7187 30.4305C94.0161 30.4305 93.3801 30.6593 92.8094 31.1104C92.2387 31.5654 91.8667 32.1595 91.6921 32.8953C91.6054 33.2385 91.5601 33.5193 91.5601 33.7403V35.8203C91.5601 36.7277 91.8454 37.4934 92.4134 38.1187C92.9841 38.7427 93.7254 39.056 94.6401 39.056C95.7107 39.056 96.5441 38.653 97.1401 37.8496C97.7374 37.0449 98.0361 35.9841 98.0361 34.6659Z" fill="white"/>
<path d="M117.385 36.1037C117.385 37.5753 116.861 38.7726 115.809 39.6969C114.653 40.707 113.044 41.2114 110.976 41.2114C109.067 41.2114 107.536 40.8526 106.377 40.1337L107.036 37.8236C108.284 38.5594 109.653 38.9286 111.145 38.9286C112.216 38.9286 113.049 38.692 113.648 38.2214C114.244 37.7508 114.541 37.119 114.541 36.3312C114.541 35.6292 114.296 35.0377 113.804 34.558C113.315 34.0783 112.497 33.6324 111.356 33.2203C108.249 32.0906 106.697 30.4357 106.697 28.2595C106.697 26.8373 107.241 25.6712 108.331 24.7638C109.416 23.8551 110.864 23.4014 112.675 23.4014C114.289 23.4014 115.631 23.6757 116.701 24.223L115.991 26.4824C114.991 25.952 113.86 25.6868 112.595 25.6868C111.595 25.6868 110.813 25.9273 110.253 26.4057C109.78 26.8334 109.543 27.3547 109.543 27.9722C109.543 28.656 109.813 29.2215 110.357 29.6661C110.831 30.0769 111.691 30.5215 112.939 31.0012C114.465 31.6005 115.587 32.3012 116.308 33.1046C117.027 33.9054 117.385 34.9077 117.385 36.1037Z" fill="white"/>
<path d="M126.784 30.5604H123.651V36.6171C123.651 38.1576 124.203 38.9272 125.309 38.9272C125.817 38.9272 126.239 38.8843 126.572 38.7985L126.651 40.9032C126.091 41.1073 125.353 41.21 124.44 41.21C123.317 41.21 122.44 40.8759 121.807 40.209C121.176 39.5408 120.859 38.4202 120.859 36.8459V30.5578H118.992V28.4778H120.859V26.1937L123.651 25.3721V28.4778H126.784V30.5604Z" fill="white"/>
<path d="M140.921 34.6151C140.921 36.5326 140.358 38.1069 139.236 39.338C138.058 40.6055 136.496 41.2373 134.548 41.2373C132.67 41.2373 131.176 40.6302 130.061 39.416C128.946 38.2018 128.389 36.6691 128.389 34.8218C128.389 32.8887 128.962 31.3053 130.113 30.0742C131.261 28.8418 132.81 28.2256 134.758 28.2256C136.636 28.2256 138.146 28.8327 139.286 30.0482C140.377 31.2273 140.921 32.7496 140.921 34.6151ZM137.972 34.7048C137.972 33.5543 137.72 32.5676 137.209 31.7447C136.613 30.7489 135.761 30.2523 134.657 30.2523C133.514 30.2523 132.646 30.7502 132.05 31.7447C131.54 32.5689 131.288 33.5712 131.288 34.7568C131.288 35.9073 131.54 36.894 132.05 37.7156C132.665 38.7114 133.524 39.208 134.632 39.208C135.717 39.208 136.569 38.701 137.184 37.6896C137.708 36.8511 137.972 35.854 137.972 34.7048Z" fill="white"/>
<path d="M150.161 30.918C149.88 30.8673 149.58 30.8413 149.265 30.8413C148.265 30.8413 147.492 31.2092 146.948 31.9463C146.475 32.5963 146.237 33.4179 146.237 34.4098V40.9553H143.396L143.423 32.4091C143.423 30.9713 143.387 29.6622 143.316 28.4818H145.792L145.896 30.8686H145.975C146.275 30.0483 146.748 29.3879 147.396 28.8926C148.029 28.4467 148.713 28.2244 149.451 28.2244C149.713 28.2244 149.951 28.2426 150.161 28.2751V30.918Z" fill="white"/>
<path d="M162.875 34.1276C162.875 34.6242 162.841 35.0428 162.771 35.3847H154.243C154.276 36.6171 154.688 37.5596 155.48 38.2096C156.199 38.7907 157.128 39.0819 158.269 39.0819C159.532 39.0819 160.684 38.8856 161.72 38.4917L162.165 40.4157C160.955 40.9305 159.525 41.1866 157.876 41.1866C155.892 41.1866 154.335 40.6172 153.201 39.4797C152.071 38.3422 151.504 36.8147 151.504 34.8985C151.504 33.0174 152.031 31.4509 153.085 30.2016C154.189 28.8678 155.681 28.2009 157.559 28.2009C159.403 28.2009 160.799 28.8678 161.747 30.2016C162.497 31.2611 162.875 32.5715 162.875 34.1276ZM160.164 33.4087C160.183 32.5871 159.997 31.8773 159.612 31.278C159.12 30.5071 158.364 30.1223 157.347 30.1223C156.417 30.1223 155.661 30.498 155.084 31.252C154.611 31.8513 154.329 32.5702 154.243 33.4074H160.164V33.4087Z" fill="white"/>
<path d="M65.4 13.0118C65.4 14.5419 64.9293 15.6937 63.9893 16.4672C63.1186 17.1809 61.8813 17.5384 60.2786 17.5384C59.484 17.5384 58.804 17.5046 58.2346 17.437V9.0767C58.9773 8.9597 59.7773 8.8999 60.6413 8.8999C62.168 8.8999 63.3186 9.2236 64.0946 9.871C64.964 10.6029 65.4 11.6494 65.4 13.0118ZM63.9266 13.0495C63.9266 12.0576 63.6573 11.2971 63.1186 10.7667C62.58 10.2376 61.7933 9.9724 60.7573 9.9724C60.3173 9.9724 59.9426 10.001 59.632 10.0608V16.4165C59.804 16.4425 60.1186 16.4542 60.576 16.4542C61.6453 16.4542 62.4706 16.1643 63.052 15.5845C63.6333 15.0047 63.9266 14.1597 63.9266 13.0495Z" fill="white"/>
<path d="M73.2119 14.3482C73.2119 15.2907 72.9359 16.0629 72.3839 16.6687C71.8052 17.2914 71.0386 17.6021 70.0812 17.6021C69.1586 17.6021 68.4239 17.3044 67.8759 16.7064C67.3292 16.1097 67.0559 15.357 67.0559 14.4496C67.0559 13.5006 67.3372 12.7219 67.9026 12.1174C68.4679 11.5129 69.2279 11.21 70.1852 11.21C71.1079 11.21 71.8492 11.5077 72.4106 12.1044C72.9439 12.6842 73.2119 13.433 73.2119 14.3482ZM71.7626 14.3924C71.7626 13.8269 71.6372 13.342 71.3879 12.9377C71.0946 12.4489 70.6772 12.2045 70.1346 12.2045C69.5732 12.2045 69.1466 12.4489 68.8532 12.9377C68.6026 13.342 68.4786 13.8347 68.4786 14.4171C68.4786 14.9826 68.6039 15.4675 68.8532 15.8718C69.1559 16.3606 69.5772 16.605 70.1212 16.605C70.6546 16.605 71.0732 16.3567 71.3746 15.8588C71.6332 15.4467 71.7626 14.9579 71.7626 14.3924Z" fill="white"/>
<path d="M83.6867 11.3347L81.7201 17.4629H80.4401L79.6254 14.8018C79.4187 14.1375 79.2507 13.4771 79.1201 12.8219H79.0947C78.9734 13.4953 78.8054 14.1544 78.5894 14.8018L77.7241 17.4629H76.4294L74.5801 11.3347H76.0161L76.7267 14.248C76.8987 14.937 77.0401 15.5935 77.1534 16.2149H77.1787C77.2827 15.7027 77.4547 15.0501 77.6974 14.261L78.5894 11.336H79.7281L80.5827 14.1986C80.7894 14.8967 80.9574 15.5688 81.0867 16.2162H81.1254C81.2201 15.5857 81.3627 14.9136 81.5521 14.1986L82.3147 11.336H83.6867V11.3347Z" fill="white"/>
<path d="M90.9307 17.463H89.5334V13.953C89.5334 12.8714 89.112 12.3306 88.2667 12.3306C87.852 12.3306 87.5174 12.4788 87.2574 12.7765C87 13.0742 86.8694 13.4252 86.8694 13.8269V17.4617H85.472V13.0859C85.472 12.5477 85.4547 11.964 85.4214 11.3322H86.6494L86.7147 12.2903H86.7534C86.9161 11.9926 87.1587 11.7469 87.4774 11.5506C87.856 11.3218 88.28 11.2061 88.744 11.2061C89.3307 11.2061 89.8187 11.3907 90.2067 11.7612C90.6894 12.2149 90.9307 12.8922 90.9307 13.7918V17.463Z" fill="white"/>
<path d="M94.7839 17.4628H93.3879V8.52271H94.7839V17.4628Z" fill="white"/>
<path d="M103.01 14.3482C103.01 15.2907 102.734 16.0629 102.182 16.6687C101.604 17.2914 100.836 17.6021 99.8798 17.6021C98.9558 17.6021 98.2212 17.3044 97.6745 16.7064C97.1278 16.1097 96.8545 15.357 96.8545 14.4496C96.8545 13.5006 97.1358 12.7219 97.7012 12.1174C98.2665 11.5129 99.0265 11.21 99.9825 11.21C100.906 11.21 101.646 11.5077 102.209 12.1044C102.742 12.6842 103.01 13.433 103.01 14.3482ZM101.56 14.3924C101.56 13.8269 101.434 13.342 101.185 12.9377C100.893 12.4489 100.474 12.2045 99.9332 12.2045C99.3705 12.2045 98.9438 12.4489 98.6518 12.9377C98.4012 13.342 98.2772 13.8347 98.2772 14.4171C98.2772 14.9826 98.4025 15.4675 98.6518 15.8718C98.9545 16.3606 99.3758 16.605 99.9198 16.605C100.453 16.605 100.87 16.3567 101.172 15.8588C101.432 15.4467 101.56 14.9579 101.56 14.3924Z" fill="white"/>
<path d="M109.773 17.463H108.519L108.415 16.7571H108.376C107.947 17.32 107.335 17.6021 106.54 17.6021C105.947 17.6021 105.467 17.4162 105.105 17.047C104.777 16.7116 104.613 16.2943 104.613 15.799C104.613 15.0502 104.933 14.4795 105.577 14.0843C106.22 13.6891 107.124 13.4954 108.288 13.5045V13.3901C108.288 12.5828 107.853 12.1798 106.983 12.1798C106.363 12.1798 105.816 12.3319 105.344 12.6335L105.06 11.7391C105.644 11.3868 106.365 11.21 107.216 11.21C108.859 11.21 109.683 12.055 109.683 13.745V16.0018C109.683 16.6141 109.713 17.1016 109.773 17.463ZM108.323 15.357V14.4119C106.781 14.3859 106.011 14.798 106.011 15.6469C106.011 15.9667 106.099 16.2059 106.279 16.3658C106.459 16.5257 106.688 16.605 106.961 16.605C107.268 16.605 107.555 16.5101 107.816 16.3216C108.079 16.1318 108.24 15.8913 108.3 15.5962C108.315 15.5299 108.323 15.4493 108.323 15.357Z" fill="white"/>
<path d="M117.713 17.4628H116.473L116.408 16.4787H116.369C115.973 17.2275 115.299 17.6019 114.351 17.6019C113.593 17.6019 112.963 17.312 112.463 16.7322C111.963 16.1524 111.713 15.3997 111.713 14.4754C111.713 13.4835 111.984 12.6801 112.528 12.0665C113.055 11.4945 113.7 11.2085 114.468 11.2085C115.312 11.2085 115.903 11.4854 116.239 12.0405H116.265V8.52271H117.664V15.8118C117.664 16.4085 117.68 16.9584 117.713 17.4628ZM116.265 14.8784V13.8566C116.265 13.6798 116.252 13.5368 116.227 13.4276C116.148 13.1 115.979 12.8244 115.721 12.6021C115.461 12.3798 115.148 12.268 114.787 12.268C114.265 12.268 113.857 12.4695 113.557 12.8738C113.26 13.2781 113.109 13.7942 113.109 14.4247C113.109 15.0305 113.252 15.5219 113.539 15.9002C113.841 16.3032 114.249 16.5047 114.76 16.5047C115.219 16.5047 115.585 16.337 115.864 16.0003C116.133 15.6896 116.265 15.3152 116.265 14.8784Z" fill="white"/>
<path d="M129.664 14.3482C129.664 15.2907 129.388 16.0629 128.836 16.6687C128.257 17.2914 127.492 17.6021 126.533 17.6021C125.612 17.6021 124.877 17.3044 124.328 16.7064C123.781 16.1097 123.508 15.357 123.508 14.4496C123.508 13.5006 123.789 12.7219 124.354 12.1174C124.92 11.5129 125.68 11.21 126.638 11.21C127.56 11.21 128.302 11.5077 128.862 12.1044C129.396 12.6842 129.664 13.433 129.664 14.3482ZM128.216 14.3924C128.216 13.8269 128.09 13.342 127.841 12.9377C127.546 12.4489 127.13 12.2045 126.586 12.2045C126.026 12.2045 125.6 12.4489 125.305 12.9377C125.054 13.342 124.93 13.8347 124.93 14.4171C124.93 14.9826 125.056 15.4675 125.305 15.8718C125.608 16.3606 126.029 16.605 126.573 16.605C127.106 16.605 127.526 16.3567 127.828 15.8588C128.085 15.4467 128.216 14.9579 128.216 14.3924Z" fill="white"/>
<path d="M137.177 17.463H135.781V13.953C135.781 12.8714 135.36 12.3306 134.513 12.3306C134.099 12.3306 133.764 12.4788 133.505 12.7765C133.247 13.0742 133.117 13.4252 133.117 13.8269V17.4617H131.719V13.0859C131.719 12.5477 131.703 11.964 131.669 11.3322H132.896L132.961 12.2903H133C133.164 11.9926 133.407 11.7469 133.724 11.5506C134.104 11.3218 134.527 11.2061 134.992 11.2061C135.577 11.2061 136.065 11.3907 136.453 11.7612C136.937 12.2149 137.177 12.8922 137.177 13.7918V17.463Z" fill="white"/>
<path d="M146.581 12.3553H145.043V15.3323C145.043 16.0889 145.316 16.4672 145.857 16.4672C146.108 16.4672 146.316 16.4464 146.48 16.4035L146.516 17.437C146.24 17.5384 145.877 17.5891 145.431 17.5891C144.879 17.5891 144.449 17.4253 144.139 17.0977C143.827 16.7701 143.672 16.2189 143.672 15.4454V12.3553H142.753V11.3348H143.672V10.2116L145.041 9.80859V11.3335H146.58V12.3553H146.581Z" fill="white"/>
<path d="M153.979 17.4628H152.58V13.9788C152.58 12.8803 152.159 12.3304 151.315 12.3304C150.667 12.3304 150.224 12.6489 149.981 13.2859C149.94 13.4198 149.916 13.5836 149.916 13.776V17.4615H148.52V8.52271H149.916V12.216H149.943C150.383 11.5439 151.013 11.2085 151.831 11.2085C152.409 11.2085 152.888 11.3931 153.268 11.7636C153.741 12.2251 153.979 12.9115 153.979 13.8189V17.4628Z" fill="white"/>
<path d="M161.609 14.1089C161.609 14.3533 161.591 14.5587 161.557 14.7264H157.367C157.385 15.3322 157.585 15.7937 157.973 16.1135C158.328 16.3995 158.785 16.5425 159.345 16.5425C159.965 16.5425 160.531 16.4463 161.04 16.2526L161.259 17.199C160.663 17.4512 159.961 17.5773 159.149 17.5773C158.176 17.5773 157.409 17.2978 156.855 16.7388C156.297 16.1798 156.021 15.4297 156.021 14.4885C156.021 13.5642 156.279 12.7946 156.797 12.181C157.339 11.5258 158.071 11.1982 158.995 11.1982C159.899 11.1982 160.585 11.5258 161.049 12.181C161.424 12.701 161.609 13.3445 161.609 14.1089ZM160.276 13.7566C160.287 13.3523 160.195 13.0039 160.005 12.7101C159.763 12.3318 159.393 12.142 158.893 12.142C158.437 12.142 158.065 12.3266 157.781 12.6971C157.549 12.9922 157.412 13.3445 157.367 13.7566H160.276Z" fill="white"/>
<path d="M371.095 54H204.658C200.998 54 198 51.0734 198 47.5V8.5C198 4.92663 200.998 2 204.658 2H371.095C374.755 2 377.753 4.92663 377.753 8.5V47.5C377.753 51.0734 374.755 54 371.095 54Z" fill="black"/>
<path d="M371.095 3.04162C374.177 3.04162 376.686 5.4905 376.686 8.5V47.5C376.686 50.5095 374.177 52.9584 371.095 52.9584H204.658C201.575 52.9584 199.067 50.5095 199.067 47.5V8.5C199.067 5.4905 201.575 3.04162 204.658 3.04162H371.095ZM371.095 2H204.658C200.998 2 198 4.92663 198 8.5V47.5C198 51.0734 200.998 54 204.658 54H371.095C374.755 54 377.753 51.0734 377.753 47.5V8.5C377.753 4.92663 374.755 2 371.095 2Z" fill="#A6A6A6"/>
<path d="M261.136 15.3169C261.136 16.4024 260.804 17.2718 260.148 17.9202C259.394 18.6888 258.412 19.0756 257.209 19.0756C256.058 19.0756 255.076 18.6823 254.271 17.9072C253.464 17.1207 253.061 16.1554 253.061 15.0001C253.061 13.8447 253.464 12.8794 254.271 12.0994C255.076 11.3178 256.058 10.9246 257.209 10.9246C257.781 10.9246 258.327 11.0399 258.848 11.2544C259.367 11.4706 259.79 11.7631 260.096 12.1238L259.401 12.8096C258.866 12.1937 258.139 11.8898 257.209 11.8898C256.37 11.8898 255.642 12.1758 255.025 12.7527C254.414 13.3312 254.108 14.0803 254.108 15.0001C254.108 15.9198 254.414 16.6754 255.025 17.2539C255.642 17.8243 256.37 18.1168 257.209 18.1168C258.099 18.1168 258.848 17.8243 259.439 17.2474C259.828 16.8656 260.05 16.3391 260.108 15.6663H257.209V14.7271H261.077C261.123 14.9302 261.136 15.1268 261.136 15.3169Z" fill="white" stroke="white" stroke-width="0.16" stroke-miterlimit="10"/>
<path d="M267.273 12.0604H263.64V14.5304H266.915V15.4696H263.64V17.9396H267.273V18.8968H262.611V11.1033H267.273V12.0604Z" fill="white" stroke="white" stroke-width="0.16" stroke-miterlimit="10"/>
<path d="M271.604 18.8968H270.575V12.0604H268.347V11.1033H273.834V12.0604H271.604V18.8968Z" fill="white" stroke="white" stroke-width="0.16" stroke-miterlimit="10"/>
<path d="M277.805 18.8968V11.1033H278.832V18.8968H277.805Z" fill="white" stroke="white" stroke-width="0.16" stroke-miterlimit="10"/>
<path d="M283.384 18.8968H282.364V12.0604H280.127V11.1033H285.621V12.0604H283.384V18.8968Z" fill="white" stroke="white" stroke-width="0.16" stroke-miterlimit="10"/>
<path d="M296.01 17.8942C295.223 18.6823 294.247 19.0756 293.084 19.0756C291.914 19.0756 290.939 18.6823 290.151 17.8942C289.366 17.1077 288.975 16.1424 288.975 15.0001C288.975 13.8577 289.366 12.8924 290.151 12.1059C290.939 11.3178 291.914 10.9246 293.084 10.9246C294.241 10.9246 295.216 11.3178 296.003 12.1124C296.796 12.9054 297.187 13.8642 297.187 15.0001C297.187 16.1424 296.796 17.1077 296.01 17.8942ZM290.912 17.2409C291.505 17.8243 292.225 18.1168 293.084 18.1168C293.936 18.1168 294.664 17.8243 295.249 17.2409C295.84 16.6576 296.14 15.9084 296.14 15.0001C296.14 14.0917 295.84 13.3426 295.249 12.7592C294.664 12.1758 293.936 11.8833 293.084 11.8833C292.225 11.8833 291.505 12.1758 290.912 12.7592C290.321 13.3426 290.022 14.0917 290.022 15.0001C290.022 15.9084 290.321 16.6576 290.912 17.2409Z" fill="white" stroke="white" stroke-width="0.16" stroke-miterlimit="10"/>
<path d="M298.63 18.8968V11.1033H299.878L303.759 17.1645H303.804L303.759 15.6663V11.1033H304.786V18.8968H303.715L299.65 12.5365H299.605L299.65 14.0413V18.8968H298.63Z" fill="white" stroke="white" stroke-width="0.16" stroke-miterlimit="10"/>
<path d="M288.722 30.2783C285.594 30.2783 283.04 32.602 283.04 35.8082C283.04 38.9883 285.594 41.3364 288.722 41.3364C291.856 41.3364 294.411 38.9883 294.411 35.8082C294.411 32.602 291.856 30.2783 288.722 30.2783ZM288.722 39.1589C287.006 39.1589 285.529 37.776 285.529 35.8082C285.529 33.8143 287.006 32.4558 288.722 32.4558C290.438 32.4558 291.921 33.8143 291.921 35.8082C291.921 37.776 290.438 39.1589 288.722 39.1589ZM276.324 30.2783C273.19 30.2783 270.642 32.602 270.642 35.8082C270.642 38.9883 273.19 41.3364 276.324 41.3364C279.456 41.3364 282.006 38.9883 282.006 35.8082C282.006 32.602 279.456 30.2783 276.324 30.2783ZM276.324 39.1589C274.606 39.1589 273.125 37.776 273.125 35.8082C273.125 33.8143 274.606 32.4558 276.324 32.4558C278.04 32.4558 279.516 33.8143 279.516 35.8082C279.516 37.776 278.04 39.1589 276.324 39.1589ZM261.571 31.9732V34.3229H267.318C267.15 35.6359 266.7 36.6012 266.011 37.2739C265.173 38.0864 263.866 38.9883 261.571 38.9883C258.034 38.9883 255.264 36.2014 255.264 32.7483C255.264 29.2952 258.034 26.5083 261.571 26.5083C263.483 26.5083 264.875 27.2379 265.902 28.1837L267.598 26.5278C266.161 25.1888 264.25 24.1602 261.571 24.1602C256.721 24.1602 252.645 28.013 252.645 32.7483C252.645 37.4835 256.721 41.3364 261.571 41.3364C264.192 41.3364 266.161 40.4979 267.709 38.9249C269.295 37.3763 269.79 35.1988 269.79 33.4405C269.79 32.8945 269.743 32.3924 269.66 31.9732H261.571ZM321.898 33.7948C321.43 32.5582 319.987 30.2783 317.048 30.2783C314.135 30.2783 311.71 32.5192 311.71 35.8082C311.71 38.9054 314.11 41.3364 317.327 41.3364C319.929 41.3364 321.43 39.7878 322.048 38.8859L320.117 37.6298C319.473 38.5495 318.596 39.1589 317.327 39.1589C316.067 39.1589 315.164 38.595 314.584 37.4835L322.159 34.4237L321.898 33.7948ZM314.175 35.6359C314.11 33.5039 315.871 32.4119 317.133 32.4119C318.121 32.4119 318.96 32.8945 319.24 33.5852L314.175 35.6359ZM308.019 41H310.508V24.75H308.019V41ZM303.941 31.51H303.858C303.298 30.8633 302.232 30.2783 300.88 30.2783C298.044 30.2783 295.451 32.7093 295.451 35.826C295.451 38.9249 298.044 41.3364 300.88 41.3364C302.232 41.3364 303.298 40.7465 303.858 40.0803H303.941V40.8733C303.941 42.9874 302.784 44.1233 300.918 44.1233C299.397 44.1233 298.453 43.0508 298.064 42.1489L295.899 43.0313C296.523 44.497 298.175 46.3008 300.918 46.3008C303.838 46.3008 306.301 44.6238 306.301 40.5434V30.6147H303.941V31.51ZM301.093 39.1589C299.377 39.1589 297.941 37.7565 297.941 35.826C297.941 33.8777 299.377 32.4558 301.093 32.4558C302.784 32.4558 304.117 33.8777 304.117 35.826C304.117 37.7565 302.784 39.1589 301.093 39.1589ZM333.555 24.75H327.6V41H330.083V34.8429H333.555C336.313 34.8429 339.018 32.8945 339.018 29.7957C339.018 26.6984 336.306 24.75 333.555 24.75ZM333.62 32.5825H330.083V27.0104H333.62C335.474 27.0104 336.533 28.5135 336.533 29.7957C336.533 31.0534 335.474 32.5825 333.62 32.5825ZM348.97 30.2474C347.176 30.2474 345.311 31.0209 344.543 32.7353L346.747 33.6372C347.221 32.7353 348.093 32.4428 349.015 32.4428C350.304 32.4428 351.61 33.1984 351.63 34.5325V34.7032C351.181 34.4497 350.219 34.0743 349.035 34.0743C346.662 34.0743 344.244 35.3499 344.244 37.7305C344.244 39.908 346.188 41.3104 348.373 41.3104C350.044 41.3104 350.966 40.5743 351.545 39.7179H351.63V40.974H354.029V34.7405C354.029 31.8594 351.825 30.2474 348.97 30.2474ZM348.671 39.1524C347.859 39.1524 346.727 38.7592 346.727 37.776C346.727 36.5183 348.138 36.0357 349.36 36.0357C350.453 36.0357 350.966 36.2713 351.63 36.5817C351.435 38.0864 350.109 39.1524 348.671 39.1524ZM362.766 30.6033L359.912 37.6477H359.827L356.876 30.6033H354.198L358.632 40.4475L356.102 45.9254H358.697L365.529 30.6033H362.766ZM340.382 41H342.872V24.75H340.382V41Z" fill="white"/>
<path d="M211.894 11.8004C211.503 12.2002 211.277 12.8226 211.277 13.6286V42.3781C211.277 43.1841 211.503 43.8064 211.894 44.2062L211.991 44.2939L228.491 28.1902V27.8099L211.991 11.7062L211.894 11.8004Z" fill="url(#paint0_linear_507_32)"/>
<path d="M233.985 33.5608L228.491 28.1902V27.8099L233.992 22.4393L234.115 22.5092L240.63 26.128C242.489 27.155 242.489 28.845 240.63 29.8785L234.115 33.4909L233.985 33.5608Z" fill="url(#paint1_linear_507_32)"/>
<path d="M234.115 33.491L228.491 28.0001L211.894 44.2062C212.512 44.84 213.519 44.9163 214.664 44.2826L234.115 33.491Z" fill="url(#paint2_linear_507_32)"/>
<path d="M234.115 22.5091L214.664 11.7175C213.519 11.0903 212.512 11.1666 211.894 11.8004L228.491 28L234.115 22.5091Z" fill="url(#paint3_linear_507_32)"/>
<defs>
<linearGradient id="paint0_linear_507_32" x1="227.026" y1="42.6775" x2="205.215" y2="20.3381" gradientUnits="userSpaceOnUse">
<stop stop-color="#00A0FF"/>
<stop offset="0.0066" stop-color="#00A1FF"/>
<stop offset="0.2601" stop-color="#00BEFF"/>
<stop offset="0.5122" stop-color="#00D2FF"/>
<stop offset="0.7604" stop-color="#00DFFF"/>
<stop offset="1" stop-color="#00E3FF"/>
</linearGradient>
<linearGradient id="paint1_linear_507_32" x1="243.05" y1="27.9982" x2="210.832" y2="27.9982" gradientUnits="userSpaceOnUse">
<stop stop-color="#FFE000"/>
<stop offset="0.4087" stop-color="#FFBD00"/>
<stop offset="0.7754" stop-color="#FFA500"/>
<stop offset="1" stop-color="#FF9C00"/>
</linearGradient>
<linearGradient id="paint2_linear_507_32" x1="231.057" y1="25.0152" x2="201.48" y2="-5.27884" gradientUnits="userSpaceOnUse">
<stop stop-color="#FF3A44"/>
<stop offset="1" stop-color="#C31162"/>
</linearGradient>
<linearGradient id="paint3_linear_507_32" x1="207.716" y1="53.7709" x2="220.924" y2="40.2434" gradientUnits="userSpaceOnUse">
<stop stop-color="#32A071"/>
<stop offset="0.0685" stop-color="#2DA771"/>
<stop offset="0.4762" stop-color="#15CF74"/>
<stop offset="0.8009" stop-color="#06E775"/>
<stop offset="1" stop-color="#00F076"/>
</linearGradient>
</defs>
</svg>
